<?xml version="1.0" encoding="UTF-8"?><svg id="Logo" xmlns="http://www.w3.org/2000/svg" xmlns:xlink="http://www.w3.org/1999/xlink" viewBox="0 0 529.43 148.8"><defs><linearGradient id="Gradiente_sem_nome_18" x1="21.42" y1="92.77" x2="137.27" y2="92.77" gradientUnits="userSpaceOnUse"><stop offset="0" stop-color="#fe0100"/><stop offset=".91" stop-color="#fedc00"/></linearGradient><linearGradient id="Gradiente_sem_nome_25" x1="11.1" y1="60.71" x2="127.02" y2="60.71" gradientUnits="userSpaceOnUse"><stop offset=".09" stop-color="#0248e5"/><stop offset=".89" stop-color="#20e2ad"/></linearGradient><linearGradient id="Gradiente_sem_nome_12" x1="18.85" y1="121.02" x2="129.12" y2="28.49" gradientUnits="userSpaceOnUse"><stop offset="0" stop-color="#026ae4"/><stop offset="1" stop-color="#15eaa5"/></linearGradient></defs><g id="Texto_v2"><path d="M161.83,102.21v-50.19h16.23l9.75,34.23,9.64-34.23h16.27v50.19h-10.08v-39.51l-10.66,39.51h-10.44l-10.63-39.51v39.51h-10.08Z" fill="#636868"/><path d="M246.95,90.64l10.26,1.61c-1.32,3.51-3.4,6.19-6.25,8.03-2.85,1.84-6.41,2.76-10.68,2.76-6.77,0-11.77-2.07-15.02-6.2-2.56-3.31-3.85-7.49-3.85-12.53,0-6.03,1.69-10.74,5.06-14.16,3.37-3.41,7.63-5.12,12.79-5.12,5.79,0,10.36,1.79,13.7,5.36,3.35,3.57,4.95,9.04,4.8,16.42h-25.8c.07,2.85.9,5.07,2.49,6.66,1.59,1.59,3.57,2.38,5.94,2.38,1.61,0,2.97-.41,4.07-1.23,1.1-.82,1.93-2.14,2.49-3.97ZM247.54,80.91c-.07-2.78-.84-4.9-2.31-6.35-1.47-1.45-3.25-2.17-5.35-2.17-2.25,0-4.1.76-5.57,2.29-1.47,1.53-2.19,3.61-2.16,6.23h15.39Z" fill="#636868"/><path d="M301.84,102.21h-9.56v-5.34c-1.59,2.08-3.46,3.62-5.62,4.64-2.16,1.02-4.34,1.52-6.54,1.52-4.47,0-8.3-1.68-11.49-5.05-3.19-3.37-4.78-8.06-4.78-14.09s1.55-10.85,4.65-14.05c3.1-3.21,7.02-4.81,11.76-4.81,4.35,0,8.11,1.69,11.29,5.07v-18.08h10.3v50.19ZM274.36,83.24c0,3.88.57,6.69,1.72,8.42,1.66,2.51,3.98,3.77,6.96,3.77,2.37,0,4.38-.94,6.05-2.82,1.66-1.88,2.49-4.7,2.49-8.44,0-4.18-.81-7.18-2.42-9.02-1.61-1.84-3.68-2.76-6.19-2.76s-4.49.91-6.14,2.72c-1.65,1.81-2.47,4.52-2.47,8.13Z" fill="#636868"/><path d="M308.62,51.25h6.42v21.59h28.91v-21.59h6.42v50.95h-6.42v-23.75h-28.91v23.75h-6.42v-50.95Z" fill="#636868"/><path d="M394.73,96.08c-2.14,2.59-4.49,4.4-7.04,5.43-2.55,1.03-5.51,1.55-8.87,1.55-2.8,0-5.33-.47-7.57-1.4-2.24-.94-4.14-2.19-5.7-3.78-1.56-1.58-2.75-3.45-3.59-5.61-.84-2.16-1.26-4.46-1.26-6.91,0-2.59.46-4.98,1.38-7.16.92-2.18,2.19-4.05,3.82-5.61,1.63-1.56,3.57-2.77,5.81-3.63,2.24-.86,4.69-1.3,7.34-1.3,2.5,0,4.79.4,6.88,1.19,2.09.79,3.89,1.94,5.39,3.45,1.5,1.51,2.66,3.36,3.48,5.54.81,2.18,1.22,4.67,1.22,7.45v1.8h-28.91c.1,1.44.47,2.82,1.11,4.14.64,1.32,1.46,2.47,2.49,3.45,1.02.98,2.22,1.76,3.59,2.34,1.38.58,2.88.86,4.51.86,2.6,0,4.79-.43,6.58-1.3,1.78-.86,3.39-2.13,4.82-3.81l4.51,3.31ZM389.6,82.33c-.1-2.88-1.1-5.18-2.98-6.91-1.89-1.73-4.49-2.59-7.8-2.59s-5.99.86-8.03,2.59c-2.04,1.73-3.26,4.03-3.67,6.91h22.48Z" fill="#636868"/><path d="M448.34,47.8h5.96v54.4h-5.96v-54.4Z" fill="#636868"/><path d="M485.81,73.27h-10.55v16.84c0,1.1.03,2.12.08,3.06.05.94.25,1.75.61,2.45.36.7.89,1.25,1.61,1.65.71.41,1.73.61,3.06.61.87,0,1.76-.1,2.68-.29.92-.19,1.78-.48,2.6-.86l.23,5.11c-1.02.43-2.15.74-3.4.94-1.25.19-2.44.29-3.56.29-2.14,0-3.85-.26-5.12-.79-1.27-.53-2.27-1.27-2.98-2.23-.71-.96-1.19-2.15-1.41-3.56-.23-1.41-.34-2.99-.34-4.71v-18.49h-7.8v-4.75h7.8v-9.57h5.96v9.57h10.55v4.75Z" fill="#636868"/><path d="M493.22,47.8h5.96v25.4h.15c.41-.67.97-1.33,1.68-1.98.71-.65,1.57-1.23,2.56-1.76.99-.53,2.1-.96,3.33-1.3,1.22-.34,2.52-.5,3.9-.5,2.34,0,4.37.34,6.08,1.01,1.71.67,3.12,1.61,4.24,2.81,1.12,1.2,1.95,2.65,2.49,4.35.54,1.7.8,3.56.8,5.58v20.8h-5.96v-20.22c0-2.83-.66-5.06-1.99-6.69-1.33-1.63-3.39-2.45-6.19-2.45-1.94,0-3.61.31-5.01.94-1.4.62-2.55,1.51-3.44,2.66-.89,1.15-1.56,2.52-1.99,4.1-.43,1.58-.65,3.33-.65,5.25v16.41h-5.96v-54.4Z" fill="#636868"/><path d="M439.68,101.54h-5.21v-4.84c-3.82,3.95-8.21,5.93-13.18,5.93s-9.23-1.72-12.77-5.17c-3.54-3.45-5.31-7.56-5.31-12.34s1.78-8.87,5.34-12.28c3.56-3.41,7.9-5.11,13.02-5.11s9.42,1.96,12.89,5.87v-5.02h5.21v32.98ZM421.67,97.97c3.56,0,6.62-1.21,9.2-3.63,2.57-2.42,3.86-5.44,3.86-9.05s-1.27-6.64-3.79-9.08c-2.53-2.44-5.63-3.66-9.29-3.66s-6.76,1.26-9.29,3.78c-2.53,2.52-3.79,5.5-3.79,8.93s1.29,6.41,3.86,8.93c2.57,2.52,5.66,3.78,9.26,3.78Z" fill="#636868"/><path d="M408.88,108.12c-.5-.73-1.17-1.27-2.01-1.6-.84-.33-1.71-.5-2.62-.5-.67,0-1.33.08-1.98.23-.65.15-1.23.38-1.74.68-.52.3-.93.7-1.24,1.2-.31.5-.47,1.08-.47,1.75,0,.52.09.98.27,1.37.18.4.47.76.88,1.08.41.32.96.63,1.65.91.69.28,1.55.56,2.55.84.98.28,1.94.58,2.86.91.92.32,1.74.73,2.45,1.23.71.5,1.27,1.12,1.69,1.86.42.74.63,1.68.63,2.8s-.25,2.13-.76,2.98c-.5.84-1.17,1.54-2,2.09-.83.55-1.78.96-2.86,1.23-1.08.27-2.19.4-3.34.4-.74,0-1.49-.06-2.23-.18-.74-.12-1.46-.3-2.14-.55-.68-.25-1.32-.57-1.92-.97-.6-.4-1.11-.89-1.55-1.47l2.59-1.91c.55.84,1.32,1.48,2.3,1.91.98.43,2.03.65,3.13.65.65,0,1.3-.09,1.96-.26.66-.17,1.25-.43,1.78-.76.53-.33.96-.75,1.29-1.25.34-.5.5-1.07.5-1.71,0-.71-.13-1.29-.4-1.73-.26-.44-.67-.82-1.22-1.15-.55-.32-1.25-.61-2.09-.87-.84-.26-1.82-.56-2.95-.91-.91-.26-1.75-.55-2.52-.89-.77-.33-1.43-.74-2-1.23-.56-.49-1.01-1.07-1.33-1.75-.32-.68-.49-1.49-.49-2.44,0-1.1.24-2.06.72-2.88.48-.82,1.13-1.5,1.94-2.05.81-.55,1.74-.96,2.77-1.25,1.03-.28,2.11-.42,3.24-.42,1.44,0,2.75.2,3.94.6,1.19.4,2.25,1.09,3.18,2.09l-2.48,1.94Z" fill="#636868"/><path d="M426.07,130.44c-.29.65-.58,1.23-.88,1.76-.3.53-.66.98-1.08,1.36-.42.38-.92.67-1.51.87-.59.2-1.3.31-2.14.31-.41,0-.83-.02-1.28-.06-.44-.04-.86-.15-1.24-.32l.36-2.2c.29.11.59.18.9.21.31.03.67.05,1.08.05.91,0,1.58-.23,2.01-.68.43-.45.8-1.06,1.11-1.81l1.15-2.85-6.98-15.23h3.27l5.21,11.87h.07l5-11.87h3.06l-8.13,18.6Z" fill="#636868"/><path d="M441.17,123c.55.63,1.16,1.12,1.82,1.49.66.37,1.49.55,2.5.55.43,0,.87-.04,1.31-.13.44-.09.85-.23,1.2-.42.36-.19.65-.44.86-.73s.32-.64.32-1.05-.1-.74-.31-1c-.2-.26-.47-.48-.81-.66-.34-.18-.72-.33-1.15-.44-.43-.11-.88-.2-1.33-.29-.79-.15-1.55-.32-2.27-.52-.72-.19-1.35-.45-1.89-.76-.54-.31-.97-.72-1.29-1.21-.32-.5-.49-1.13-.49-1.91,0-.73.18-1.38.54-1.94.36-.56.84-1.02,1.44-1.39.6-.37,1.27-.65,2.01-.84.74-.19,1.51-.29,2.3-.29,1.2,0,2.31.22,3.33.65,1.02.43,1.82,1.13,2.39,2.1l-2.34,1.39c-.36-.54-.83-.98-1.42-1.31-.59-.33-1.3-.5-2.14-.5-.38,0-.77.04-1.17.13-.4.09-.75.22-1.06.39-.31.17-.57.39-.77.66-.2.27-.31.58-.31.92,0,.32.11.6.34.82.23.23.54.43.93.6.4.17.85.32,1.37.45.52.13,1.05.24,1.6.32.74.13,1.45.3,2.12.5.67.21,1.26.48,1.76.82.5.35.9.78,1.19,1.29.29.52.43,1.15.43,1.91,0,.86-.19,1.6-.58,2.2-.38.6-.89,1.09-1.53,1.47-.64.38-1.35.65-2.16.82-.8.17-1.62.26-2.46.26-1.44,0-2.68-.2-3.72-.6-1.04-.4-1.98-1.14-2.82-2.22l2.23-1.55Z" fill="#636868"/><path d="M468.93,113.97h-4.96v7.57c0,.5.01.95.04,1.37.02.42.12.79.29,1.1.17.31.42.56.76.74.34.18.81.27,1.44.27.41,0,.83-.04,1.26-.13.43-.09.84-.22,1.22-.39l.11,2.3c-.48.19-1.01.33-1.6.42-.59.09-1.14.13-1.67.13-1.01,0-1.81-.12-2.41-.36-.6-.24-1.07-.57-1.4-1-.34-.43-.56-.96-.67-1.6-.11-.64-.16-1.34-.16-2.12v-8.31h-3.67v-2.13h3.67v-4.3h2.8v4.3h4.96v2.13Z" fill="#636868"/><path d="M491,124.23c-1.01,1.16-2.11,1.98-3.31,2.44-1.2.46-2.59.7-4.17.7-1.32,0-2.51-.21-3.56-.63-1.06-.42-1.95-.99-2.68-1.7-.73-.71-1.29-1.55-1.69-2.52-.4-.97-.59-2.01-.59-3.11,0-1.16.22-2.24.65-3.22.43-.98,1.03-1.82,1.8-2.52.77-.7,1.68-1.25,2.73-1.63,1.05-.39,2.21-.58,3.45-.58,1.17,0,2.25.18,3.24.53.98.36,1.83.87,2.54,1.55.71.68,1.25,1.51,1.64,2.49.38.98.58,2.1.58,3.35v.81h-13.59c.05.65.22,1.27.52,1.86.3.59.69,1.11,1.17,1.55.48.44,1.04.79,1.69,1.05s1.35.39,2.12.39c1.22,0,2.25-.19,3.09-.58.84-.39,1.59-.96,2.27-1.71l2.12,1.49ZM488.59,118.05c-.05-1.29-.52-2.33-1.4-3.11-.89-.78-2.11-1.16-3.67-1.16s-2.82.39-3.78,1.16c-.96.78-1.53,1.81-1.73,3.11h10.57Z" fill="#636868"/><path d="M499.56,115.43c0-.69-.02-1.34-.07-1.94-.05-.6-.07-1.15-.07-1.65h2.66c0,.41.01.82.04,1.23.02.41.04.83.04,1.26h.07c.19-.37.46-.72.81-1.07.35-.34.76-.65,1.24-.92.48-.27,1.02-.49,1.62-.65.6-.16,1.25-.24,1.94-.24.91,0,1.67.1,2.28.31.61.21,1.12.45,1.53.74.41.29.72.6.95.94.23.33.41.63.56.89.62-.91,1.34-1.61,2.16-2.12.81-.51,1.87-.76,3.16-.76,1.2,0,2.21.15,3.02.44.81.29,1.47.71,1.98,1.26.5.55.86,1.22,1.08,2.01.22.79.32,1.67.32,2.64v9.19h-2.8v-9.06c0-.52-.06-1.02-.18-1.52-.12-.5-.34-.94-.65-1.33-.31-.39-.73-.7-1.26-.94-.53-.24-1.2-.36-2.01-.36-.6,0-1.16.11-1.69.32-.53.22-.99.52-1.38.91s-.71.86-.93,1.41c-.23.55-.34,1.16-.34,1.83v8.73h-2.8v-8.57c0-1.68-.25-2.87-.76-3.57-.5-.7-1.33-1.05-2.48-1.05-.91,0-1.7.14-2.36.42-.66.28-1.2.68-1.62,1.2-.42.52-.73,1.13-.93,1.84-.2.71-.31,1.5-.31,2.36v7.37h-2.8v-11.55Z" fill="#636868"/></g><g id="Logo-2"><g id="bottom_-_health"><path d="M53.96,79.95c1.41-.23,2.12-2.98,2.55-4.17.75-2.08,1.43-4.2,2.16-6.29.06-.16.16-.54.33-.59l3.3,12.88c2.88,10.08,5.29,20.33,8.3,30.35,1.12,1.69,3.79,1.24,4.39-.66l8.01-39.19c.95-4.63,1.75-9.29,2.85-13.88.28-.03.17,0,.22.16.39,1.32.63,2.83,1,4.2,1.49,5.52,3.13,11.02,4.54,16.57.37.83,1.08,1.65,2.08,1.6h41.47c1.49.1,2.23.9,2.1,2.42-.06.61-.27.98-.83,1.23-1.32.6-6.18.13-7.99.24-.23.01-1.2.12-1.3.22-.14.14-.15.41-.16.59-.17,1.94.39,4.96-.35,6.69-.62,1.45-2.49,3.22-4.14,3.22h-27.01c-.22,1-.07,2.06-.1,3.09-.18,6.14.08,12.33,0,18.51-.03,1.86.05,3.87-.11,5.73-.18,2.02-2.28,4.03-4.27,4.28h-33.67c-2.14-.46-3.98-2.29-4.15-4.51l-.11-26.95-.49-.16h-26.85c-2.22-.33-4.29-2.54-4.29-4.81v-10.61l.16-.16h32.37Z" fill="url(#Gradiente_sem_nome_18)"/></g><g id="top_-_health"><path d="M21.42,57.92c.28-2.2,2.11-4.12,4.29-4.48,8.75-.2,17.54-.15,26.3-.13.35,0,.67.16,1-.02.15-.2.13-.44.14-.67.46-7.88-.35-16.11-.12-24.04.07-2.37.04-4.02,2.01-5.68,1.21-1.02,2.36-1.12,3.9-1.19,10.15-.49,20.68.38,30.86,0,2.67-.04,4.92,1.7,5.44,4.31l.02,26.28.02,1.11c.52.01,1.25,0,1.77.03,8.06.4,16.51-.3,24.57-.1,2.39.06,5.03,1.85,5.26,4.38.1,1.08.09,2.55.12,3.67.12,4.89-.1,9.79,0,14.68l-31.11-.02-.29-.36c-1.48-6.27-3.36-12.44-5.06-18.65-.88-3.21-1.59-7.19-2.76-10.23-.22-.58-.39-.82-.95-1.11-1.52-.8-3.08-.27-3.61,1.38-.97,3.03-1.4,6.9-2.05,10.07-2.95,14.24-5.92,28.47-8.74,42.74-.28-.31-.49-.97-.62-1.38-.85-2.85-1.47-5.91-2.25-8.79-2.2-8.18-4.43-16.36-6.65-24.53-.37-1.35-1.03-5.05-1.69-5.99-1.01-1.42-3.22-1.3-4.07.24-.72,1.3-1.4,3.72-1.93,5.21-1.22,3.39-2.35,6.81-3.54,10.2l-.21.23H12.71c-1.47-.42-2.22-2.38-1.02-3.49.54-.5,1.38-.57,2.1-.61,2.49-.15,5.13.12,7.64,0v-13.05Z" fill="url(#Gradiente_sem_nome_25)"/></g><g id="mascara"><g opacity=".3"><path d="M124.31,58.17v16.04h-12.08c-3.39-6.1-7.92-12.31-13.45-18.3h23.27c1.25,0,2.26,1.01,2.26,2.26Z" fill="#fff"/><path d="M92.23,26.85v22.28c0,.07,0,.15-.01.22-2.71-2.51-5.6-4.95-8.66-7.3-8.94-6.88-18.26-12.2-27.26-15.83.27-.94,1.14-1.63,2.17-1.63h31.5c1.25,0,2.26,1.01,2.26,2.26Z" fill="#fff"/><path d="M124.31,58.17v16.04h-12.08c-3.39-6.1-7.92-12.31-13.45-18.3h23.27c1.25,0,2.26,1.01,2.26,2.26Z" fill="none" stroke="#fff"/><path d="M92.23,26.85v22.28c0,.07,0,.15-.01.22-2.71-2.51-5.6-4.95-8.66-7.3-8.94-6.88-18.26-12.2-27.26-15.83.27-.94,1.14-1.63,2.17-1.63h31.5c1.25,0,2.26,1.01,2.26,2.26Z" fill="none" stroke="#fff"/></g></g><g id="circulo"><path id="circulo-2" d="M73.99,146.73c-9.71,0-19.14-1.9-28.02-5.66-8.57-3.63-16.27-8.81-22.88-15.42-6.61-6.61-11.8-14.31-15.42-22.88-3.75-8.88-5.66-18.3-5.66-28.02s1.9-19.14,5.66-28.02c3.63-8.57,8.81-16.27,15.42-22.88s14.31-11.8,22.88-15.42c8.88-3.75,18.3-5.66,28.02-5.66s19.14,1.9,28.02,5.66c8.57,3.63,16.27,8.81,22.88,15.42s11.8,14.31,15.42,22.88c3.75,8.88,5.66,18.3,5.66,28.02s-1.9,19.14-5.66,28.02c-3.63,8.57-8.81,16.27-15.42,22.88-6.61,6.61-14.31,11.8-22.88,15.42-8.88,3.75-18.3,5.66-28.02,5.66ZM73.99,8.99c-8.88,0-17.49,1.74-25.6,5.17-7.83,3.31-14.86,8.05-20.91,14.1s-10.78,13.07-14.1,20.91c-3.43,8.11-5.17,16.72-5.17,25.6s1.74,17.49,5.17,25.6c3.31,7.83,8.05,14.86,14.1,20.91,6.04,6.04,13.07,10.78,20.91,14.1,8.11,3.43,16.72,5.17,25.6,5.17s17.49-1.74,25.6-5.17c7.83-3.31,14.86-8.05,20.91-14.1s10.78-13.07,14.1-20.91c3.43-8.11,5.17-16.72,5.17-25.6s-1.74-17.49-5.17-25.6c-3.31-7.83-8.05-14.86-14.1-20.91-6.04-6.04-13.07-10.78-20.91-14.1-8.11-3.43-16.72-5.17-25.6-5.17Z" fill="url(#Gradiente_sem_nome_12)"/></g></g></svg>