<?xml version="1.0" encoding="UTF-8"?>
<svg id="Logo" xmlns="http://www.w3.org/2000/svg" xmlns:xlink="http://www.w3.org/1999/xlink" viewBox="0 0 5120.96 1439.31">
  <defs>
    <style>
      .cls-1 {
        font-family: STHeitiSC-Medium, 'Heiti SC';
        font-size: 588.1px;
        font-weight: 500;
        letter-spacing: 0em;
      }

      .cls-1, .cls-2, .cls-3, .cls-4 {
        fill: #636868;
      }

      .cls-2 {
        font-size: 699.31px;
      }

      .cls-2, .cls-4 {
        font-family: Avenir-Roman, Avenir;
      }

      .cls-5 {
        fill: url(#Gradiente_sem_nome_12);
      }

      .cls-6 {
        fill: url(#Gradiente_sem_nome_18);
      }

      .cls-7 {
        fill: url(#Gradiente_sem_nome_25);
      }

      .cls-3 {
        font-family: Arial-BoldMT, Arial;
        font-size: 681.38px;
        font-weight: 700;
      }

      .cls-8 {
        letter-spacing: 0em;
      }

      .cls-9 {
        fill: #fff;
      }

      .cls-10 {
        opacity: .3;
      }

      .cls-4 {
        font-size: 314.35px;
        letter-spacing: .1em;
      }

      .cls-11 {
        fill: none;
        stroke: #fff;
      }
    </style>
    <linearGradient id="Gradiente_sem_nome_18" data-name="Gradiente sem nome 18" x1="208.4" y1="895.64" x2="1334.26" y2="895.64" gradientUnits="userSpaceOnUse">
      <stop offset="0" stop-color="#fe0100"/>
      <stop offset=".91" stop-color="#fedc00"/>
    </linearGradient>
    <linearGradient id="Gradiente_sem_nome_25" data-name="Gradiente sem nome 25" x1="108.05" y1="583.99" x2="1234.64" y2="583.99" gradientUnits="userSpaceOnUse">
      <stop offset=".09" stop-color="#0248e5"/>
      <stop offset=".89" stop-color="#20e2ad"/>
    </linearGradient>
    <linearGradient id="Gradiente_sem_nome_12" data-name="Gradiente sem nome 12" x1="183.38" y1="1170.18" x2="1255.09" y2="270.91" gradientUnits="userSpaceOnUse">
      <stop offset="0" stop-color="#026ae4"/>
      <stop offset="1" stop-color="#15eaa5"/>
    </linearGradient>
  </defs>
  <g id="Texto_v2" data-name="Texto v2">
    <text class="cls-3" transform="translate(1521.33 987.33) scale(1.07 1)"><tspan x="0" y="0">Med</tspan></text>
    <text class="cls-2" transform="translate(2934.1 987.2) scale(1.06 1)"><tspan x="0" y="0" xml:space="preserve">He  </tspan><tspan class="cls-8" x="1282.52" y="0">lt</tspan><tspan x="1697.88" y="0">h</tspan></text>
    <text class="cls-1" transform="translate(3890.69 1016.08) scale(1.06 1)"><tspan x="0" y="0">a</tspan></text>
    <text class="cls-4" transform="translate(3825.7 1228.05) scale(1.11 1)"><tspan x="0" y="0">System</tspan></text>
  </g>
  <g id="Logo-2" data-name="Logo">
    <g id="bottom_-_health" data-name="bottom - health">
      <path class="cls-6" d="M524.57,771c13.68-2.26,20.59-29,24.75-40.49,7.31-20.21,13.87-40.79,20.98-61.08.54-1.54,1.54-5.26,3.19-5.74l32.09,125.21c27.99,97.96,51.37,197.55,80.67,294.94,10.92,16.45,36.86,12.01,42.67-6.43l77.83-380.91c9.19-44.97,16.99-90.28,27.69-134.87,2.73-.3,1.67,0,2.12,1.54,3.78,12.86,6.17,27.54,9.75,40.77,14.53,53.69,30.37,107.1,44.15,161.02,3.58,8.09,10.52,16.03,20.2,15.57l403.06-.08c14.51,1.05,21.72,8.83,20.37,23.58-.54,5.95-2.58,9.51-8.02,11.99-12.82,5.86-60.06,1.22-77.67,2.29-2.2.13-11.66,1.19-12.61,2.12-1.37,1.34-1.44,3.94-1.6,5.77-1.64,18.81,3.76,48.18-3.39,65-5.98,14.06-24.15,31.33-40.22,31.33h-262.51c-2.1,9.72-.72,20.06-1.01,30.03-1.72,59.65.82,119.78,0,179.92-.25,18.09.48,37.58-1.11,55.7-1.72,19.66-22.13,39.16-41.51,41.61l-327.26-.04c-20.81-4.43-38.68-22.24-40.37-43.8l-1.09-261.95-4.78-1.54-260.91-.03c-21.56-3.18-41.65-24.67-41.65-46.73v-103.11l1.58-1.58h314.59Z"/>
    </g>
    <g id="top_-_health" data-name="top - health">
      <path class="cls-7" d="M208.4,556.88c2.7-21.34,20.49-40.06,41.69-43.54,85.05-1.95,170.43-1.41,255.6-1.23,3.36,0,6.46,1.55,9.68-.2,1.41-1.95,1.23-4.28,1.36-6.54,4.49-76.55-3.42-156.54-1.15-233.67.68-23.08.42-39.11,19.49-55.21,11.72-9.9,22.92-10.87,37.86-11.59,98.59-4.76,200.97,3.69,299.95,0,25.91-.37,47.79,16.49,52.82,41.87l.22,255.45.17,10.77c5.1.15,12.14.03,17.19.28,78.32,3.89,160.41-2.87,238.78-1,23.26.56,48.89,18.02,51.13,42.52.96,10.52.86,24.79,1.12,35.71,1.12,47.48-.95,95.14-.04,142.62l-302.3-.21-2.81-3.51c-14.37-60.98-32.62-120.9-49.18-181.24-8.56-31.18-15.41-69.84-26.84-99.42-2.17-5.61-3.77-7.95-9.2-10.8-14.76-7.73-29.95-2.66-35.07,13.4-9.39,29.45-13.57,67.06-19.96,97.88-28.7,138.35-57.57,276.72-84.95,415.36-2.75-2.97-4.79-9.41-6-13.45-8.25-27.68-14.32-57.4-21.86-85.46-21.34-79.46-43.01-158.98-64.64-238.38-3.59-13.16-9.96-49.1-16.46-58.24-9.82-13.84-31.28-12.6-39.57,2.38-6.97,12.59-13.57,36.18-18.77,50.67-11.82,32.92-22.85,66.17-34.45,99.17l-2,2.21-376.43.1c-14.26-4.17-21.58-23.26-9.96-34.02,5.29-4.9,13.38-5.52,20.37-5.94,24.2-1.46,49.87,1.18,74.22.04v-126.78Z"/>
    </g>
    <g id="mascara">
      <g class="cls-10">
        <g>
          <path class="cls-9" d="M1208.34,559.34v155.87h-117.36c-32.94-59.29-77-119.62-130.73-177.8h226.16c12.12,0,21.93,9.81,21.93,21.93Z"/>
          <path class="cls-9" d="M896.57,254.97v216.55c0,.71-.03,1.43-.1,2.13-26.35-24.37-54.43-48.11-84.12-70.97-86.85-66.89-177.48-118.55-264.9-153.81,2.63-9.15,11.06-15.83,21.07-15.83h306.12c12.11,0,21.93,9.81,21.93,21.93Z"/>
        </g>
        <g>
          <path class="cls-11" d="M1208.34,559.34v155.87h-117.36c-32.94-59.29-77-119.62-130.73-177.8h226.16c12.12,0,21.93,9.81,21.93,21.93Z"/>
          <path class="cls-11" d="M896.57,254.97v216.55c0,.71-.03,1.43-.1,2.13-26.35-24.37-54.43-48.11-84.12-70.97-86.85-66.89-177.48-118.55-264.9-153.81,2.63-9.15,11.06-15.83,21.07-15.83h306.12c12.11,0,21.93,9.81,21.93,21.93Z"/>
        </g>
      </g>
    </g>
    <g id="circulo">
      <path id="circulo-2" data-name="circulo" class="cls-5" d="M719.23,1420c-94.41,0-186.02-18.5-272.27-54.98-83.29-35.23-158.09-85.66-222.32-149.89-64.23-64.23-114.66-139.03-149.89-222.32-36.48-86.25-54.98-177.86-54.98-272.27s18.5-186.02,54.98-272.27c35.23-83.29,85.66-158.09,149.89-222.32,64.23-64.23,139.03-114.66,222.32-149.89,86.25-36.48,177.86-54.98,272.27-54.98s186.02,18.5,272.27,54.98c83.29,35.23,158.09,85.66,222.32,149.89s114.66,139.03,149.89,222.32c36.48,86.25,54.98,177.86,54.98,272.27s-18.5,186.02-54.98,272.27c-35.23,83.29-85.66,158.09-149.89,222.32-64.23,64.23-139.03,114.66-222.32,149.89-86.25,36.48-177.86,54.98-272.27,54.98ZM719.23,81.39c-86.3,0-170,16.89-248.78,50.22-76.11,32.19-144.46,78.28-203.17,136.99-58.71,58.71-104.8,127.06-136.99,203.17-33.32,78.78-50.22,162.48-50.22,248.78s16.89,170,50.22,248.78c32.19,76.11,78.28,144.46,136.99,203.17s127.06,104.8,203.17,136.99c78.78,33.32,162.48,50.21,248.78,50.21s170-16.9,248.78-50.21c76.11-32.19,144.46-78.28,203.17-136.99,58.71-58.71,104.8-127.06,136.99-203.17,33.32-78.78,50.21-162.48,50.21-248.78s-16.89-170-50.21-248.78c-32.19-76.11-78.28-144.46-136.99-203.17-58.71-58.71-127.06-104.8-203.17-136.99-78.78-33.32-162.48-50.22-248.78-50.22Z"/>
    </g>
  </g>
</svg>